# xmcd CD database file
# Copyright (C) 1997 Ti Kan
# 
# Track frame offsets:
#     150
#     20652
#     44912
#     63775
#     85852
#     98737
#     120850
#     137672
#     160680
#     185875
#     204170
#     219457
#     236187
#     254597
#     267317
#     284882
#     309622
# 
# Disc length: 4327 seconds
# 
# Revision: 1
# Processed by: cddbd v1.4b41PL1 Copyright (c) Steve Scherf et al.
# Submitted via: DiscPlay 4.0.3
# 
DISCID=0110e511
DTITLE=Various Artist - Love Songs ,Best Collection '97
DYEAR=1900
DGENRE=
TTITLE0=Unbreak my heart/Toni Braxton
TTITLE1=I believe I can fly/R.Kelly
TTITLE2=When you love a woman/Journey
TTITLE3=When I need you/Rod Stewart
TTITLE4=You must love me/Madonna
TTITLE5=I turn to you/All for one
TTITLE6=I finally found someone/Bryan Adams and Barbra Striensand
TTITLE7=Child/Mark Owen
TTITLE8=Don't cry for me Argentina/Madonna
TTITLE9=How much I love you/No mercy
TTITLE10=What becomes of the broken hearted/Robson and Jerome
TTITLE11=Star/ Bryan Adams
TTITLE12=Words/Boyzone
TTITLE13=That thing you do/The Wonders
TTITLE14=I love you always forever/Donna Lewis
TTITLE15=To love you more/Celine Dion
TTITLE16=The best part/Tommy Page
EXTD=
EXTT0=
EXTT1=
EXTT2=
EXTT3=
EXTT4=
EXTT5=
EXTT6=
EXTT7=
EXTT8=
EXTT9=
EXTT10=
EXTT11=
EXTT12=
EXTT13=
EXTT14=
EXTT15=
EXTT16=
PLAYORDER=
